<svg width="275" height="206" viewBox="0 0 275 206" fill="none" xmlns="http://www.w3.org/2000/svg">
<g clip-path="url(#clip0_3668_55004)">
<path d="M98.4742 204.641C98.0305 204.91 97.5194 205.17 96.9409 205.421C96.3621 205.674 95.7255 205.865 95.0314 206.002C94.337 206.154 93.5848 206.231 92.7747 206.231C91.2124 206.231 89.7947 205.963 88.5216 205.421C87.2487 204.863 86.159 204.109 85.2524 203.165C84.3458 202.202 83.6419 201.102 83.1403 199.866C82.6581 198.614 82.417 197.282 82.417 195.875C82.417 194.37 82.6775 192.971 83.1981 191.68C83.7191 190.387 84.4519 189.258 85.397 188.293C86.3421 187.33 87.4415 186.576 88.6953 186.037C89.9491 185.497 91.3087 185.226 92.7747 185.226C93.8548 185.226 94.8675 185.371 95.8125 185.663C96.7576 185.952 97.6159 186.326 98.3875 186.791L97.7798 188.092C97.1048 187.668 96.3428 187.31 95.4942 187.02C94.6455 186.731 93.7487 186.587 92.8036 186.587C91.5886 186.587 90.4409 186.829 89.3608 187.31C88.2805 187.774 87.3258 188.43 86.4964 189.277C85.6864 190.108 85.0498 191.081 84.5869 192.199C84.1241 193.319 83.8925 194.525 83.8925 195.815C83.8925 197.052 84.0952 198.219 84.5002 199.318C84.9246 200.415 85.5225 201.381 86.294 202.21C87.0847 203.041 88.0298 203.696 89.1292 204.177C90.2287 204.641 91.4535 204.871 92.8036 204.871C93.8065 204.871 94.7227 204.737 95.5521 204.468C96.4008 204.177 97.1531 203.82 97.8088 203.397L98.4742 204.641Z" fill="black"/>
<path d="M102.421 195.759C102.421 194.313 102.691 192.963 103.231 191.708C103.771 190.436 104.523 189.315 105.488 188.352C106.452 187.369 107.561 186.607 108.815 186.065C110.088 185.508 111.448 185.226 112.894 185.226C114.341 185.226 115.701 185.508 116.973 186.065C118.247 186.607 119.365 187.369 120.33 188.352C121.294 189.315 122.046 190.436 122.586 191.708C123.146 192.963 123.425 194.313 123.425 195.759C123.425 197.204 123.146 198.565 122.586 199.837C122.046 201.092 121.294 202.202 120.33 203.165C119.365 204.13 118.247 204.881 116.973 205.421C115.701 205.963 114.341 206.231 112.894 206.231C111.448 206.231 110.088 205.971 108.815 205.452C107.561 204.93 106.452 204.197 105.488 203.252C104.523 202.308 103.771 201.198 103.231 199.925C102.691 198.652 102.421 197.263 102.421 195.759ZM103.868 195.787C103.868 197.041 104.099 198.219 104.562 199.318C105.025 200.415 105.671 201.381 106.5 202.21C107.329 203.041 108.284 203.696 109.364 204.177C110.464 204.641 111.631 204.871 112.865 204.871C114.138 204.871 115.324 204.641 116.424 204.177C117.523 203.696 118.488 203.041 119.317 202.21C120.146 201.381 120.792 200.415 121.256 199.318C121.737 198.219 121.979 197.031 121.979 195.759C121.979 194.504 121.737 193.329 121.256 192.23C120.792 191.109 120.146 190.136 119.317 189.308C118.488 188.458 117.523 187.792 116.424 187.31C115.324 186.829 114.148 186.587 112.894 186.587C111.621 186.587 110.435 186.837 109.336 187.34C108.236 187.821 107.272 188.487 106.442 189.336C105.632 190.185 104.996 191.169 104.533 192.286C104.089 193.386 103.868 194.553 103.868 195.787Z" fill="black"/>
<path d="M138.941 187.774C138.344 187.485 137.611 187.214 136.744 186.964C135.874 186.713 135.007 186.587 134.139 186.587C132.789 186.587 131.709 186.925 130.899 187.599C130.089 188.275 129.683 189.124 129.683 190.147C129.683 190.918 129.915 191.564 130.378 192.085C130.841 192.586 131.448 193.02 132.201 193.386C132.952 193.732 133.752 194.07 134.601 194.398C135.278 194.649 135.941 194.93 136.599 195.237C137.273 195.547 137.88 195.924 138.422 196.365C138.961 196.809 139.385 197.359 139.695 198.015C140.022 198.67 140.185 199.481 140.185 200.446C140.185 201.582 139.917 202.597 139.374 203.482C138.835 204.352 138.084 205.026 137.118 205.509C136.155 205.991 135.035 206.231 133.762 206.231C132.741 206.231 131.805 206.107 130.956 205.854C130.127 205.604 129.394 205.315 128.758 204.987C128.141 204.641 127.649 204.352 127.282 204.12L127.947 202.963C128.372 203.27 128.883 203.58 129.481 203.887C130.098 204.197 130.764 204.458 131.477 204.67C132.191 204.881 132.905 204.987 133.618 204.987C134.446 204.987 135.247 204.824 136.019 204.497C136.811 204.169 137.456 203.676 137.957 203.02C138.479 202.346 138.739 201.497 138.739 200.475C138.739 199.491 138.497 198.699 138.017 198.102C137.534 197.485 136.917 196.982 136.163 196.597C135.412 196.213 134.612 195.864 133.762 195.557C133.107 195.304 132.451 195.046 131.796 194.775C131.14 194.486 130.542 194.148 130.002 193.763C129.462 193.358 129.028 192.875 128.7 192.315C128.391 191.757 128.237 191.081 128.237 190.291C128.237 189.308 128.487 188.448 128.989 187.715C129.491 186.982 130.166 186.414 131.014 186.008C131.882 185.585 132.866 185.363 133.966 185.342C134.929 185.342 135.905 185.469 136.888 185.719C137.89 185.97 138.757 186.287 139.491 186.674L138.941 187.774Z" fill="black"/>
<path d="M145.482 206.002V184.997H145.511L155.297 198.91L165.127 184.997H165.155V206.002H163.767V189.101L155.318 201.025H155.261L146.871 189.295V206.002H145.482Z" fill="black"/>
<path d="M170.398 195.759C170.398 194.313 170.669 192.963 171.209 191.708C171.751 190.436 172.502 189.315 173.465 188.352C174.431 187.369 175.541 186.607 176.793 186.065C178.068 185.508 179.426 185.226 180.874 185.226C182.319 185.226 183.68 185.508 184.952 186.065C186.225 186.607 187.343 187.369 188.308 188.352C189.274 189.315 190.025 190.436 190.565 191.708C191.125 192.963 191.404 194.313 191.404 195.759C191.404 197.204 191.125 198.565 190.565 199.837C190.025 201.092 189.274 202.202 188.308 203.165C187.343 204.13 186.225 204.881 184.952 205.421C183.68 205.963 182.319 206.231 180.874 206.231C179.426 206.231 178.068 205.971 176.793 205.452C175.541 204.93 174.431 204.197 173.465 203.252C172.502 202.308 171.751 201.198 171.209 199.925C170.669 198.652 170.398 197.263 170.398 195.759ZM171.847 195.787C171.847 197.041 172.079 198.219 172.541 199.318C173.003 200.415 173.648 201.381 174.48 202.21C175.308 203.041 176.263 203.696 177.342 204.177C178.442 204.641 179.609 204.871 180.843 204.871C182.118 204.871 183.303 204.641 184.403 204.177C185.502 203.696 186.465 203.041 187.296 202.21C188.125 201.381 188.77 200.415 189.235 199.318C189.715 198.219 189.958 197.031 189.958 195.759C189.958 194.504 189.715 193.329 189.235 192.23C188.77 191.109 188.125 190.136 187.296 189.308C186.465 188.458 185.502 187.792 184.403 187.31C183.303 186.829 182.126 186.587 180.874 186.587C179.601 186.587 178.414 186.837 177.314 187.34C176.214 187.821 175.252 188.487 174.42 189.336C173.612 190.185 172.975 191.169 172.513 192.286C172.069 193.386 171.847 194.553 171.847 195.787Z" fill="black"/>
<path d="M98.1182 74.9585H122.886C129.726 74.9585 135.27 69.4142 135.27 62.5747V45.6039H116.694C106.435 45.6039 98.1182 53.9207 98.1182 64.1798V74.9585Z" fill="#D9D9D9"/>
<path d="M98.1182 74.9585H122.886C129.726 74.9585 135.27 69.4142 135.27 62.5747V45.6039H116.694C106.435 45.6039 98.1182 53.9207 98.1182 64.1798V74.9585Z" fill="url(#paint0_linear_3668_55004)"/>
<path d="M98.1182 0.883728C118.637 0.883728 135.27 17.5172 135.27 38.0356V62.3449C135.27 42.1636 98.1171 62.5744 98.1182 19.2304V0.883728Z" fill="url(#paint1_linear_3668_55004)"/>
<path d="M175.633 74.9585H150.865C144.024 74.9585 138.481 69.4142 138.481 62.5747V45.6039H157.057C167.316 45.6039 175.633 53.9207 175.633 64.1798V74.9585Z" fill="#D9D9D9"/>
<path d="M175.633 74.9585H150.865C144.024 74.9585 138.481 69.4142 138.481 62.5747V45.6039H157.057C167.316 45.6039 175.633 53.9207 175.633 64.1798V74.9585Z" fill="url(#paint2_linear_3668_55004)"/>
<path d="M175.633 0.883728C155.114 0.883728 138.481 17.5172 138.481 38.0356V62.3449C138.481 42.1636 175.633 62.5744 175.633 19.2304V0.883728Z" fill="url(#paint3_linear_3668_55004)"/>
<path fill-rule="evenodd" clip-rule="evenodd" d="M135.005 128.636C129.472 141.731 124.923 152.532 124.898 152.639C124.859 152.796 125.47 152.832 128.16 152.832H131.47L138.195 136.421C141.894 127.394 144.953 120.009 144.995 120.008C145.033 120.008 147.974 127.376 151.526 136.383L157.984 152.76L161.839 152.798C163.96 152.819 165.695 152.787 165.695 152.726C165.698 152.665 161.154 141.861 155.599 128.718C148.529 111.988 145.436 104.822 145.284 104.824C145.132 104.825 141.99 112.105 135.005 128.636ZM253.515 104.926C253.407 105.106 233.298 152.686 233.298 152.762C233.298 152.8 234.787 152.832 236.61 152.832C239.129 152.832 239.942 152.788 239.994 152.651C240.655 150.951 253.327 120.189 253.399 120.113C253.456 120.055 255.511 125.098 257.968 131.321C260.423 137.545 263.343 144.93 264.453 147.734L266.472 152.832H270.313C274.053 152.832 274.151 152.825 274.079 152.549C273.844 151.65 253.905 104.817 253.758 104.817C253.66 104.817 253.552 104.866 253.515 104.926ZM-0.0556641 129.765V152.832H3.34614H6.74794V143.215V133.597H15.8679H24.9878V130.343V127.089H15.8679H6.74794V120.148V113.206H17.1707H27.5935V109.952V106.698H13.7689H-0.0556641V129.765ZM48.2939 129.765V152.832H51.696H55.0978V129.765V106.698H51.696H48.2939V129.765ZM78.8384 129.765V152.832H93.8236H108.809L108.77 149.542L108.731 146.252L97.1867 146.215L85.6421 146.178V126.438V106.698H82.2402H78.8384V129.765ZM184.803 109.943V113.206H192.263C200.643 113.206 201.174 113.254 202.948 114.183C206.856 116.23 208.297 121.496 206.105 125.709C205.387 127.085 204.298 128.122 202.839 128.819C202.194 129.126 201.342 129.457 200.942 129.555C200.436 129.679 197.911 129.751 192.511 129.796L184.803 129.859V141.346V152.832H188.205H191.605V144.588V136.345L195.043 136.343C196.936 136.343 198.709 136.306 198.988 136.263L199.496 136.185L204.845 144.508L210.194 152.832H214.089C217.443 152.832 217.972 152.803 217.902 152.621C217.84 152.462 211.327 142.023 207.011 135.171L206.681 134.647L207.778 133.954C210.984 131.924 212.938 128.961 213.847 124.746C214.195 123.131 214.198 119.373 213.854 117.865C212.721 112.929 209.492 109.458 204.489 107.8C201.412 106.779 201.629 106.799 192.8 106.736L184.803 106.68V109.943Z" fill="black"/>
</g>
<defs>
<linearGradient id="paint0_linear_3668_55004" x1="135.27" y1="45.6039" x2="121.895" y2="83.3776" gradientUnits="userSpaceOnUse">
<stop stop-color="#9C00D3"/>
<stop offset="1" stop-color="#EDBBFF"/>
</linearGradient>
<linearGradient id="paint1_linear_3668_55004" x1="98.1171" y1="3.17707" x2="135.27" y2="58.6757" gradientUnits="userSpaceOnUse">
<stop stop-color="#9C00D3"/>
<stop offset="0.9999" stop-color="#F0C9FF"/>
</linearGradient>
<linearGradient id="paint2_linear_3668_55004" x1="138.481" y1="45.6039" x2="151.856" y2="83.3776" gradientUnits="userSpaceOnUse">
<stop stop-color="#9C00D3"/>
<stop offset="1" stop-color="#EDBBFF"/>
</linearGradient>
<linearGradient id="paint3_linear_3668_55004" x1="175.633" y1="3.17707" x2="138.481" y2="58.6757" gradientUnits="userSpaceOnUse">
<stop stop-color="#9C00D3"/>
<stop offset="0.9999" stop-color="#F0C9FF"/>
</linearGradient>
<clipPath id="clip0_3668_55004">
<rect width="274.322" height="206" fill="white"/>
</clipPath>
</defs>
</svg>
